<svg width="24" height="29" viewBox="0 0 24 29" fill="none" xmlns="http://www.w3.org/2000/svg">
<path d="M15.4205 5.44181C16.1442 4.71877 16.6783 3.92684 17.0229 3.06569C17.356 2.20455 17.5226 1.42408 17.5226 0.723403C17.5226 0.677803 17.5197 0.619747 17.5139 0.551164C17.5079 0.482581 17.5053 0.425516 17.5053 0.378925C17.4939 0.344478 17.4795 0.281315 17.4623 0.189124C17.4451 0.0976107 17.4307 0.0344478 17.4192 0C15.3976 0.470751 13.962 1.32043 13.112 2.54898C12.2505 3.78873 11.8025 5.26415 11.7681 6.97491C12.5373 6.90571 13.1346 6.80877 13.56 6.68245C14.1803 6.47519 14.8002 6.06213 15.4205 5.44181Z" fill="#3A67FF"/>
<path d="M21.278 18.748C20.4854 17.6123 20.0891 16.3325 20.0891 14.9087C20.0891 13.6119 20.4621 12.4243 21.209 11.3451C21.6111 10.76 22.2658 10.0828 23.1733 9.31344C22.576 8.57919 21.9787 8.0056 21.3814 7.59175C20.3016 6.84661 19.0782 6.47266 17.7116 6.47266C16.8961 6.47266 15.9025 6.66844 14.7308 7.05838C13.6051 7.44895 12.7838 7.64343 12.2672 7.64343C11.8767 7.64343 11.0841 7.47125 9.88945 7.12694C8.68337 6.78258 7.66712 6.6104 6.84003 6.6104C4.86431 6.6104 3.23321 7.43681 1.94699 9.08994C0.648998 10.7657 0 12.9118 0 15.5284C0 18.3058 0.84425 21.1922 2.53285 24.1882C4.24409 27.1607 5.97279 28.6468 7.71879 28.6468C8.3046 28.6468 9.06241 28.4517 9.99284 28.0617C10.9233 27.6829 11.7385 27.4936 12.4392 27.4936C13.1859 27.4936 14.0528 27.6773 15.0409 28.0442C16.0859 28.4115 16.89 28.5949 17.4529 28.5949C18.9228 28.5949 20.3989 27.4703 21.8807 25.221C22.8456 23.7865 23.552 22.3515 24 20.917C22.9778 20.6075 22.0706 19.8843 21.278 18.748Z" fill="#3A67FF"/>
</svg>
